<svg xmlns="http://www.w3.org/2000/svg" viewBox="0 0 512 512" fill="none">
  <rect width="512" height="512" rx="112" fill="#6366f1"/>
  <path d="M256 96c-44.2 0-80 35.8-80 80 0 28.4 14.8 53.4 37.1 67.6-40.8 18.6-69.1 59.8-69.1 107.4 0 65 52.7 117.7 117.7 117.7S379.4 416 379.4 351c0-47.6-28.3-88.8-69.1-107.4 22.3-14.2 37.1-39.2 37.1-67.6 0-44.2-35.8-80-80-80z" fill="#fff" opacity=".95"/>
  <ellipse cx="256" cy="340" rx="72" ry="88" fill="#fff" opacity=".95"/>
  <path d="M220 200c8-12 20-20 36-20s28 8 36 20" stroke="#6366f1" stroke-width="10" stroke-linecap="round"/>
</svg>
